<mxfile host="65bd71144e">
    <diagram id="DOsJokR7l6kQFrq2gYUB" name="Página-1">
        <mxGraphModel dx="641" dy="429" grid="1" gridSize="10" guides="1" tooltips="1" connect="1" arrows="1" fold="1" page="1" pageScale="1" pageWidth="827" pageHeight="1169" math="0" shadow="0">
            <root>
                <mxCell id="0"/>
                <mxCell id="1" parent="0"/>
                <mxCell id="2" value="" style="rounded=1;whiteSpace=wrap;html=1;fillColor=#FFFFFF;fontColor=#ffffff;strokeColor=#005700;strokeWidth=2;" parent="1" vertex="1">
                    <mxGeometry x="120" y="70" width="600" height="240" as="geometry"/>
                </mxCell>
                <mxCell id="6" value="Claves" style="swimlane;fontStyle=0;childLayout=stackLayout;horizontal=1;startSize=20;horizontalStack=0;resizeParent=1;resizeParentMax=0;resizeLast=0;collapsible=1;marginBottom=0;whiteSpace=wrap;html=1;fillColor=#60a917;fontColor=#ffffff;strokeColor=#2D7600;rounded=1;" parent="1" vertex="1">
                    <mxGeometry x="150" y="120" width="70" height="140" as="geometry"/>
                </mxCell>
                <mxCell id="7" value="Haya" style="text;strokeColor=none;fillColor=none;align=left;verticalAlign=middle;spacingLeft=4;spacingRight=4;overflow=hidden;points=[[0,0.5],[1,0.5]];portConstraint=eastwest;rotatable=0;whiteSpace=wrap;html=1;fontColor=#1A1A1A;labelBackgroundColor=none;" parent="6" vertex="1">
                    <mxGeometry y="20" width="70" height="30" as="geometry"/>
                </mxCell>
                <mxCell id="10" value="Halla" style="text;strokeColor=none;fillColor=none;align=left;verticalAlign=middle;spacingLeft=4;spacingRight=4;overflow=hidden;points=[[0,0.5],[1,0.5]];portConstraint=eastwest;rotatable=0;whiteSpace=wrap;html=1;fontColor=#1A1A1A;labelBackgroundColor=none;" parent="6" vertex="1">
                    <mxGeometry y="50" width="70" height="30" as="geometry"/>
                </mxCell>
                <mxCell id="11" value="Aya" style="text;strokeColor=none;fillColor=none;align=left;verticalAlign=middle;spacingLeft=4;spacingRight=4;overflow=hidden;points=[[0,0.5],[1,0.5]];portConstraint=eastwest;rotatable=0;whiteSpace=wrap;html=1;fontColor=#1A1A1A;labelBackgroundColor=none;" parent="6" vertex="1">
                    <mxGeometry y="80" width="70" height="30" as="geometry"/>
                </mxCell>
                <mxCell id="8" value="Allá" style="text;strokeColor=none;fillColor=none;align=left;verticalAlign=middle;spacingLeft=4;spacingRight=4;overflow=hidden;points=[[0,0.5],[1,0.5]];portConstraint=eastwest;rotatable=0;fontColor=#1A1A1A;labelBackgroundColor=none;labelBorderColor=none;html=1;" parent="6" vertex="1">
                    <mxGeometry y="110" width="70" height="30" as="geometry"/>
                </mxCell>
                <mxCell id="12" value="Diccionario" style="text;html=1;strokeColor=none;fillColor=none;align=center;verticalAlign=middle;whiteSpace=wrap;rounded=0;fontStyle=1;fontSize=16;fontColor=#60A917;" parent="1" vertex="1">
                    <mxGeometry x="120" y="80" width="600" height="30" as="geometry"/>
                </mxCell>
                <mxCell id="13" value="Valores" style="swimlane;fontStyle=0;childLayout=stackLayout;horizontal=1;startSize=20;horizontalStack=0;resizeParent=1;resizeParentMax=0;resizeLast=0;collapsible=1;marginBottom=0;whiteSpace=wrap;html=1;fillColor=#60a917;fontColor=#ffffff;strokeColor=#2D7600;rounded=1;" parent="1" vertex="1">
                    <mxGeometry x="290" y="120" width="400" height="140" as="geometry"/>
                </mxCell>
                <mxCell id="14" value="&lt;font style=&quot;font-size: 12px;&quot;&gt;&lt;span style=&quot;font-family: &amp;quot;Google Sans&amp;quot;, arial, sans-serif;&quot;&gt;del verbo hallar (&lt;/span&gt;&lt;span style=&quot;font-family: &amp;quot;Google Sans&amp;quot;, arial, sans-serif;&quot;&gt;Halla&lt;/span&gt;&lt;span style=&quot;font-family: &amp;quot;Google Sans&amp;quot;, arial, sans-serif;&quot;&gt;&amp;nbsp;una manera de terminar el trabajo)&lt;/span&gt;&lt;/font&gt;" style="text;strokeColor=none;fillColor=none;align=left;verticalAlign=middle;spacingLeft=4;spacingRight=4;overflow=hidden;points=[[0,0.5],[1,0.5]];portConstraint=eastwest;rotatable=0;whiteSpace=wrap;html=1;fontColor=#1A1A1A;labelBackgroundColor=none;" parent="13" vertex="1">
                    <mxGeometry y="20" width="400" height="30" as="geometry"/>
                </mxCell>
                <mxCell id="15" value="&lt;font style=&quot;font-size: 12px;&quot;&gt;&lt;span style=&quot;font-family: &amp;quot;Google Sans&amp;quot;, arial, sans-serif;&quot;&gt;puede ser una forma del verbo haber (Quizá&amp;nbsp;&lt;/span&gt;&lt;span style=&quot;font-family: &amp;quot;Google Sans&amp;quot;, arial, sans-serif;&quot;&gt;haya&lt;/span&gt;&lt;span style=&quot;font-family: &amp;quot;Google Sans&amp;quot;, arial, sans-serif;&quot;&gt;&amp;nbsp;mucha gente) o un árbol (Han cortado el&amp;nbsp;&lt;/span&gt;&lt;span style=&quot;font-family: &amp;quot;Google Sans&amp;quot;, arial, sans-serif;&quot;&gt;haya&lt;/span&gt;&lt;span style=&quot;font-family: &amp;quot;Google Sans&amp;quot;, arial, sans-serif;&quot;&gt;)&lt;/span&gt;&lt;/font&gt;" style="text;strokeColor=none;fillColor=none;align=left;verticalAlign=middle;spacingLeft=4;spacingRight=4;overflow=hidden;points=[[0,0.5],[1,0.5]];portConstraint=eastwest;rotatable=0;whiteSpace=wrap;html=1;fontColor=#1A1A1A;labelBackgroundColor=none;" parent="13" vertex="1">
                    <mxGeometry y="50" width="400" height="30" as="geometry"/>
                </mxCell>
                <mxCell id="16" value="&lt;font style=&quot;font-size: 12px;&quot;&gt;&lt;span style=&quot;font-family: &amp;quot;Google Sans&amp;quot;, arial, sans-serif;&quot;&gt;mujer encargada del cuidado y educación de niños (Ha llegado una nueva&amp;nbsp;&lt;/span&gt;&lt;span style=&quot;font-family: &amp;quot;Google Sans&amp;quot;, arial, sans-serif;&quot;&gt;aya&lt;/span&gt;&lt;span style=&quot;font-family: &amp;quot;Google Sans&amp;quot;, arial, sans-serif;&quot;&gt;)&lt;/span&gt;&lt;/font&gt;" style="text;strokeColor=none;fillColor=none;align=left;verticalAlign=middle;spacingLeft=4;spacingRight=4;overflow=hidden;points=[[0,0.5],[1,0.5]];portConstraint=eastwest;rotatable=0;whiteSpace=wrap;html=1;fontColor=#1A1A1A;labelBackgroundColor=none;" parent="13" vertex="1">
                    <mxGeometry y="80" width="400" height="30" as="geometry"/>
                </mxCell>
                <mxCell id="17" value="&lt;font style=&quot;font-size: 12px;&quot;&gt;&lt;span style=&quot;font-family: &amp;quot;Google Sans&amp;quot;, arial, sans-serif;&quot;&gt;adverbio de lugar (El río está más&amp;nbsp;&lt;/span&gt;&lt;span style=&quot;font-family: &amp;quot;Google Sans&amp;quot;, arial, sans-serif;&quot;&gt;allá&lt;/span&gt;&lt;span style=&quot;font-family: &amp;quot;Google Sans&amp;quot;, arial, sans-serif;&quot;&gt;)&lt;/span&gt;&lt;/font&gt;" style="text;strokeColor=none;fillColor=none;align=left;verticalAlign=middle;spacingLeft=4;spacingRight=4;overflow=hidden;points=[[0,0.5],[1,0.5]];portConstraint=eastwest;rotatable=0;whiteSpace=wrap;html=1;fontColor=#1A1A1A;labelBackgroundColor=none;" parent="13" vertex="1">
                    <mxGeometry y="110" width="400" height="30" as="geometry"/>
                </mxCell>
                <mxCell id="19" style="edgeStyle=none;html=1;fontSize=12;fontColor=#60A917;strokeColor=#FFFFFF;" parent="1" source="7" target="14" edge="1">
                    <mxGeometry relative="1" as="geometry"/>
                </mxCell>
                <mxCell id="20" style="edgeStyle=none;html=1;fontSize=12;fontColor=#60A917;strokeColor=#FFFFFF;" parent="1" source="10" target="15" edge="1">
                    <mxGeometry relative="1" as="geometry"/>
                </mxCell>
                <mxCell id="21" style="edgeStyle=none;html=1;exitX=1;exitY=0.5;exitDx=0;exitDy=0;fontSize=12;fontColor=#60A917;strokeColor=#FFFFFF;" parent="1" source="11" target="16" edge="1">
                    <mxGeometry relative="1" as="geometry"/>
                </mxCell>
                <mxCell id="22" style="edgeStyle=none;html=1;exitX=1;exitY=0.5;exitDx=0;exitDy=0;entryX=0;entryY=0.5;entryDx=0;entryDy=0;fontSize=12;fontColor=#60A917;strokeColor=#FFFFFF;" parent="1" source="8" target="17" edge="1">
                    <mxGeometry relative="1" as="geometry"/>
                </mxCell>
                <mxCell id="23" value="Permite agregar, editar o eliminar claves y valores, es una lista ordenada de claves." style="text;html=1;strokeColor=none;fillColor=none;align=center;verticalAlign=middle;whiteSpace=wrap;rounded=0;fontColor=#1A1A1A;" parent="1" vertex="1">
                    <mxGeometry x="120" y="271" width="600" height="30" as="geometry"/>
                </mxCell>
            </root>
        </mxGraphModel>
    </diagram>
</mxfile>